<svg width="295" height="89" viewBox="0 0 295 89" fill="none" xmlns="http://www.w3.org/2000/svg">
<path d="M101.017 43.4571H121.558V36.1607H109.701V29.9066H120.192V22.3835H109.701V16.8545H121.558V9.46741H101.017V43.4571Z" fill="black"/>
<path d="M124.874 43.4571H135.453L142.241 33.4868L149.03 43.4571H159.609L147.531 25.7372L158.551 9.46741H147.972L142.241 17.9422L136.467 9.46741H125.887L136.907 25.7372L124.874 43.4571Z" fill="black"/>
<path d="M192.435 26.5076C192.435 17.1264 185.029 9.46741 175.905 9.46741C166.78 9.46741 159.419 17.1264 159.419 26.5076C159.419 35.8888 166.78 43.4571 175.905 43.4571C185.029 43.4571 192.435 35.8888 192.435 26.5076ZM183.795 26.4623C183.795 30.9036 180.269 34.5745 175.905 34.5745C171.585 34.5745 168.059 30.9036 168.059 26.4623C168.059 21.9756 171.585 18.3501 175.905 18.3501C180.269 18.3501 183.795 21.9756 183.795 26.4623Z" fill="black"/>
<path d="M101.017 86.9143H113.271C122.396 86.9143 129.801 79.3006 129.801 69.9195C129.801 60.5383 122.396 52.9246 113.271 52.9246H101.017V86.9143ZM109.657 78.1223V62.0338H113.315C117.635 62.0338 121.162 65.6594 121.162 70.0554C121.162 74.4967 117.635 78.1223 113.315 78.1223H109.657Z" fill="black"/>
<path d="M133.552 86.9143H154.093V79.6179H142.236V73.3638H152.727V65.8407H142.236V60.3117H154.093V52.9246H133.552V86.9143Z" fill="black"/>
<path d="M173.451 86.9143H177.418L192.802 52.8793H184.162L175.434 72.2308L166.75 52.8793H158.022L173.451 86.9143Z" fill="black"/>
<path d="M196.176 86.9143H204.86V73.9529H215.351V86.9143H224.035V52.9246H215.351V65.0249H204.86V52.9246H196.176V86.9143Z" fill="black"/>
<path d="M241.921 86.9143C249.106 86.9143 254.969 80.9775 254.969 73.4997V52.9246H246.241V73.3638C246.241 75.811 244.301 77.8051 241.921 77.8051C239.541 77.8051 237.601 75.811 237.601 73.3638V52.9246H228.873V73.4997C228.873 80.9775 234.648 86.9143 241.921 86.9143Z" fill="black"/>
<path d="M259.826 86.9143H276.136C281.381 86.9143 285.833 82.337 285.833 76.944C285.833 73.8623 284.335 71.0071 282.087 69.149C283.365 67.4722 284.202 65.3422 284.202 63.0309C284.202 57.5925 279.706 52.9246 274.417 52.9246H259.826V86.9143ZM268.51 66.2033V60.3117H272.697C274.284 60.3117 275.563 61.626 275.563 63.2575C275.563 64.889 274.284 66.2033 272.697 66.2033H268.51ZM268.51 79.5725V73.681H274.328C275.827 73.681 277.194 74.9953 277.194 76.6268C277.194 78.2583 275.915 79.5725 274.328 79.5725H268.51Z" fill="black"/>
<path d="M7.39856 9.44159H82.7024V86.8626H7.39856V9.44159Z" fill="#FDD758"/>
<path d="M0.0518799 0H73.614C74.5759 0 75.3557 0.779769 75.3557 1.74166V3.8113C75.3557 44.4648 42.3995 77.4211 1.74591 77.4211V77.4211C0.810324 77.4211 0.0518799 76.6626 0.0518799 75.727V0Z" fill="#EE3B50"/>
</svg>
